<?xml version="1.0" encoding="UTF-8"?>
<svg xmlns="http://www.w3.org/2000/svg" width="96" height="96" viewBox="0 0 96 96" fill="none">
  <rect width="96" height="96" rx="12" fill="#FFFFFF" />
  <rect x="6" y="10" width="84" height="70" rx="8" fill="#F3F4F6" />
  <rect x="6" y="10" width="84" height="18" rx="6" fill="#FF9AA2" />
  <!-- Rings -->
  <circle cx="24" cy="19" r="3" fill="#2B2B2B" />
  <circle cx="40" cy="19" r="3" fill="#2B2B2B" />
  <circle cx="56" cy="19" r="3" fill="#2B2B2B" />
  <circle cx="72" cy="19" r="3" fill="#2B2B2B" />
  <!-- Grid squares -->
  <g fill="#3B3B3B">
    <rect x="14" y="36" width="12" height="10" rx="2" fill="#3B3B3B" opacity="0.9" />
    <rect x="34" y="36" width="12" height="10" rx="2" fill="#3B3B3B" opacity="0.9" />
    <rect x="54" y="36" width="12" height="10" rx="2" fill="#3B3B3B" opacity="0.9" />

    <rect x="14" y="50" width="12" height="10" rx="2" fill="#3B3B3B" opacity="0.9" />
    <rect x="34" y="50" width="12" height="10" rx="2" fill="#3B3B3B" opacity="0.9" />
    <rect x="54" y="50" width="12" height="10" rx="2" fill="#3B3B3B" opacity="0.9" />
  </g>
  <!-- Corner accent -->
  <path d="M84 14c0 6-4 12-8 12s8-6 8-12z" fill="#FF6B81" opacity="0.95"/>
</svg>
